# xmcd CD database file
#
# Track frame offsets:
#	150
#	14552
#	27837
#	37517
#	54967
#	67457
#	95165
#	98390
#	106015
#	123825
#	131190
#	137685
#	149295
#	154992
#	159952
#	167985
#	173385
#
# Disc length: 2486 seconds
#
# Revision: 2
# Processed by: cddbd v1.5.2PL0 Copyright (c) Steve Scherf et al.
# Submitted via: CDex 1.70beta2
#
DISCID=d909b411
DTITLE=Baba Zula - 3 Oyundan 17 Şarkı
DYEAR=2000
DGENRE=Other
TTITLE0=Babasız Kızlar Balosu
TTITLE1=Korsan
TTITLE2=Maduray'da Sabah
TTITLE3=Erotika
TTITLE4=Hıdırellez Gülleri
TTITLE5=Bahar
TTITLE6=Kurabiye Dans
TTITLE7=Tohum
TTITLE8=Anam
TTITLE9=Dini Bütün Bir Gece
TTITLE10=Çiçeğin Doğuşu
TTITLE11=Çöl Aslanları
TTITLE12=Mutfak Kazaları
TTITLE13=Kurbaga Öyküleri
TTITLE14=Çöl Havası
TTITLE15=Adam
TTITLE16=El Filan Sallıyorum
EXTD=YEAR: 2000
EXTT0=
EXTT1=
EXTT2=
EXTT3=
EXTT4=
EXTT5=
EXTT6=
EXTT7=
EXTT8=
EXTT9=
EXTT10=
EXTT11=
EXTT12=
EXTT13=
EXTT14=
EXTT15=
EXTT16=
PLAYORDER=
